<svg xmlns="http://www.w3.org/2000/svg" viewBox="0 0 48 48" fill="none" aria-hidden="true">
  <!-- Mint green orbit -->
  <path
    d="M7 30.5C9 20 18.5 13 28 13c4.5 0 8.5 1.2 11.5 3.5"
    stroke="#5eead4"
    stroke-width="1.4"
    stroke-linecap="round"
    fill="none"
  />
  <circle cx="10" cy="28" r="1.4" fill="#5eead4" />
  <circle cx="16" cy="21" r="1.4" fill="#5eead4" />
  <circle cx="24" cy="16.5" r="1.4" fill="#5eead4" />
  <!-- Lavender orbit -->
  <path
    d="M41 19c-1 11-11.5 19-23 19-4 0-7.5-.8-10.5-2.3"
    stroke="#c4b5fd"
    stroke-width="1.4"
    stroke-linecap="round"
    fill="none"
  />
  <circle cx="36" cy="23" r="1.4" fill="#c4b5fd" />
  <circle cx="30" cy="31" r="1.4" fill="#c4b5fd" />
  <circle cx="20" cy="36" r="1.4" fill="#c4b5fd" />
  <!-- Back sheet -->
  <path
    d="M17 31h17.5a1.8 1.8 0 0 0 1.8-1.8V18.2L32.3 14H17a1.8 1.8 0 0 0-1.8 1.8V29.2a1.8 1.8 0 0 0 1.8 1.8z"
    fill="#2a2540"
    stroke="#7c6bb0"
    stroke-width="1.35"
    stroke-linejoin="round"
  />
  <!-- Middle sheet -->
  <path
    d="M14.5 29h17.5a1.8 1.8 0 0 0 1.8-1.8V16.7L29.8 13H14.5a1.8 1.8 0 0 0-1.8 1.8V27.2a1.8 1.8 0 0 0 1.8 1.8z"
    fill="#352d4f"
    stroke="#9580dc"
    stroke-width="1.35"
    stroke-linejoin="round"
  />
  <!-- Front sheet + fold -->
  <path
    d="M12 27h17.5a1.8 1.8 0 0 0 1.8-1.8V15.2L27.3 11H12a1.8 1.8 0 0 0-1.8 1.8V25.2A1.8 1.8 0 0 0 12 27z"
    fill="#3f3660"
    stroke="#b4a3fc"
    stroke-width="1.35"
    stroke-linejoin="round"
  />
  <path
    d="M27.3 11v4.2h4.2"
    stroke="#d8cffc"
    stroke-width="1.2"
    stroke-linejoin="round"
    fill="none"
  />
  <!-- Lines on front -->
  <path
    stroke="#e4dcff"
    stroke-width="1.15"
    stroke-linecap="round"
    d="M15 17.5h9M15 20h13M15 22.5h11M15 25h7"
  />
</svg>
